<svg width="700" height="436" viewBox="0 0 700 436" fill="none" xmlns="http://www.w3.org/2000/svg">
<path d="M170.879 6.52839C170.428 10.0114 172.658 13.6572 175.962 14.8454C193.573 21.8929 207.218 24.4754 219.956 25.0559L238.186 97.7223C234.523 101.314 232.825 106.788 233.813 111.817L200.274 169.173C181.991 160.401 161.576 155.561 139.999 155.561C62.8622 155.561 0 218.419 0 295.547C0 372.674 62.8636 435.546 139.999 435.546C203.291 435.546 256.931 393.213 274.168 335.41C283.896 344.449 296.851 349.994 311.115 349.994C341.09 349.994 365.558 325.526 365.558 295.551C365.558 288.693 364.245 282.161 361.912 276.106L488.789 154.585C490.233 160.525 491.654 166.445 493.162 172.325C449.623 196.104 420.001 242.594 420.001 295.551C420.001 372.682 482.865 435.55 560.001 435.55C637.138 435.55 700 372.687 700 295.551C700 218.415 637.136 155.565 560.001 155.565C544.267 155.565 529.169 158.278 515.036 163.101C512.768 154.09 510.391 145.073 508.232 135.882L508.476 135.643L508.232 135.404C504.066 117.668 500.029 99.8087 495.835 82.4213C495.087 78.9761 492.689 75.9326 489.515 74.4027L484.165 55.6847C489.954 48.9085 504.299 43.3259 518.682 43.2879C526.462 43.2879 533.883 44.5357 538.371 46.6895C542.852 48.8488 543.959 50.6337 543.959 53.01C543.959 64.6744 543.53 73.0669 540.801 78.5307C538.072 83.9886 533.054 88.5458 518.682 92.1429C514.445 92.8048 511.304 97.4869 512.313 101.659C513.322 105.826 518.259 108.565 522.328 107.209C539.065 103.026 549.607 95.6748 554.651 85.5786C559.702 75.4821 559.512 64.6801 559.512 53.0107C559.512 43.7226 552.552 36.5011 544.929 32.84C537.306 29.1725 528.219 27.7131 518.682 27.7347C499.607 27.8107 478.231 33.198 468.611 49.3652C467.564 51.1827 467.293 53.4288 467.884 55.4416L474.449 78.2817C471.731 83.7883 473.066 88.0961 474.205 93.3483H253.025L236.012 25.0542C246.797 24.5117 257.924 23.3506 272.225 23.3506C276.327 23.4265 280.098 19.6777 280.098 15.576C280.098 11.4691 276.327 7.74733 272.225 7.79608C252.26 7.79608 238.431 9.73828 225.556 9.73828C212.687 9.73828 200.502 7.98051 181.806 0.504437C175.909 -1.21 171.27 1.60579 170.891 6.5265L170.879 6.52839ZM270.27 124.458H475.158L342.938 251.33C339.151 248.59 334.968 246.474 330.541 244.765L332.971 233.34H342.205V217.785H311.097V233.34H316.929L315.225 241.358C312.61 240.908 310.126 241.282 307.69 241.358L270.27 124.458ZM243.045 141.717L278.288 252.056C276.834 253.158 275.488 254.465 274.154 255.702C265.034 225.109 245.758 198.786 220.193 180.844L243.045 141.717ZM139.991 186.676C155.85 186.676 170.905 190.11 184.467 196.154L139.991 272.227C127.106 272.227 116.657 282.671 116.657 295.562C116.657 308.447 127.106 318.897 139.991 318.897C148.531 318.897 155.855 314.073 159.925 307.232H248.395C242.617 362.033 196.377 404.448 139.991 404.448C79.6721 404.448 31.1057 355.881 31.1057 295.563C31.1057 235.244 79.6735 186.681 139.991 186.681V186.676ZM559.989 186.676C620.308 186.676 668.875 235.238 668.875 295.558C668.875 355.877 620.307 404.443 559.989 404.443C499.67 404.443 451.104 355.875 451.104 295.558C451.104 256.717 471.211 222.712 501.656 203.441C511.899 232.636 522.467 264.808 538.114 287.534C537.23 289.997 536.655 292.791 536.655 295.553C536.655 308.438 547.104 318.887 559.99 318.887C572.875 318.887 583.324 308.443 583.324 295.553C582.95 279.612 573.428 272.528 556.588 272.701C540.48 244.793 530.574 219.718 523.049 192.982C535.772 189.293 548.841 186.738 559.997 186.667L559.989 186.676ZM204.644 207.819C228.564 225.451 245.101 252.665 248.394 283.892H160.168L204.644 207.819ZM326.897 260.315C328.378 260.977 329.898 261.666 331.27 262.501L325.194 268.333L326.897 260.315ZM283.392 268.333L288.497 283.887H279.502C279.242 280.773 278.748 277.708 278.287 274.653C279.752 272.342 281.482 270.276 283.392 268.333ZM349.261 288.261C349.717 290.654 349.988 293.024 349.988 295.553C349.988 317.123 332.67 334.441 311.099 334.441C297.232 334.441 285.166 327.296 278.287 316.457C278.748 313.402 279.242 310.337 279.502 307.223H291.167C295.236 314.064 302.56 318.887 311.1 318.887C320.166 318.963 329.714 311.254 332.73 304.065L349.255 288.267L349.261 288.261Z" fill="black"/>
</svg>
