<svg width="600" height="601" viewBox="0 0 600 601" fill="none" xmlns="http://www.w3.org/2000/svg">
<path d="M300 378.543C256.682 378.543 221.456 343.316 221.456 299.999C221.456 256.681 256.682 221.455 300 221.455C343.318 221.455 378.544 256.681 378.544 299.999C378.544 343.316 343.318 378.543 300 378.543ZM300 235.77C264.559 235.77 235.775 264.552 235.775 299.995C235.775 335.437 264.557 364.22 300 364.22C335.443 364.22 364.225 335.437 364.225 299.995C364.225 264.552 335.443 235.77 300 235.77Z" fill="black"/>
<path d="M300 474.772C203.699 474.772 125.295 396.371 125.295 300.067C125.295 203.765 203.696 125.361 300 125.361C336.015 125.361 370.525 136.173 399.881 156.722L406.325 161.232L401.241 167.247C398.306 170.684 396.731 175.123 396.731 179.777C396.731 190.445 405.466 199.18 416.133 199.18C421.002 199.18 425.585 197.39 429.093 194.239L434.892 189.013L439.618 195.242C462.602 225.6 474.702 261.829 474.702 300.134C474.702 396.364 396.3 474.761 299.996 474.761L300 474.772ZM300 139.685C211.575 139.685 139.618 211.642 139.618 300.067C139.618 388.492 211.575 460.449 300 460.449C388.425 460.449 460.382 388.492 460.382 300.067C460.382 267.202 450.645 235.986 432.244 209.351C427.375 212 421.862 213.432 416.134 213.432C397.518 213.432 382.41 198.324 382.41 179.708C382.41 174.41 383.627 169.255 385.99 164.601C360.286 148.276 330.716 139.685 300 139.685Z" fill="black"/>
<path d="M300.065 576.016C262.833 576.016 226.676 568.713 192.667 554.322C159.802 540.432 130.304 520.528 104.958 495.181C79.6125 469.834 59.7081 440.335 45.817 407.472C31.4258 373.462 24.1228 337.304 24.1228 300.073C24.1228 254.537 35.5071 209.285 56.9874 169.334L60.5674 162.675L67.0114 166.613C70.0902 168.475 73.527 169.405 77.1068 169.405C87.7751 169.405 96.5098 160.67 96.5098 150.002C96.5098 143.845 93.6459 138.117 88.6339 134.393L82.6196 129.883L87.4168 124.083C140.042 60.5744 217.44 24.1303 299.92 24.1303C337.152 24.1303 373.31 31.4334 407.391 45.8245C440.255 59.7142 469.754 79.6186 495.099 104.966C520.445 130.311 540.349 159.811 554.241 192.674C568.632 226.685 575.935 262.842 575.935 300.073C575.935 351.982 561.399 402.602 533.977 446.355C507.271 488.956 469.538 523.466 424.789 546.236L418.059 549.672L414.98 542.799C411.83 535.782 404.885 531.271 397.224 531.271C386.556 531.271 377.821 540.006 377.821 550.674C377.821 552.751 378.179 554.827 378.823 556.903L381.115 563.992L373.883 565.996C350.183 572.655 325.267 576.02 300.064 576.02L300.065 576.016ZM66.5096 181.999C48.1082 218.443 38.442 259.111 38.442 300.067C38.442 444.345 155.793 561.693 300.068 561.693C321.692 561.693 343.099 559.115 363.72 553.889C363.648 552.815 363.576 551.741 363.576 550.667C363.576 532.051 378.684 516.943 397.3 516.943C408.04 516.943 417.92 522.027 424.22 530.404C509.137 484.58 561.626 396.939 561.626 300.068C561.626 155.868 444.202 38.5209 299.934 38.4423C223.968 38.4423 152.513 71.0202 102.827 128.085C107.983 134.099 110.847 141.76 110.847 149.994C110.847 168.61 95.7392 183.717 77.1231 183.717C73.4715 183.717 69.8916 183.144 66.5264 181.999L66.5096 181.999Z" fill="black"/>
<path d="M292.838 349.91H307.159V600.001H292.838V349.91Z" fill="black"/>
<path d="M292.838 0H307.159V31.3603H292.838V0Z" fill="black"/>
<path d="M292.838 67.3094H307.159V250.106H292.838V67.3094Z" fill="black"/>
<path d="M349.908 292.84H600V307.16H349.908V292.84Z" fill="black"/>
<path d="M0 292.84H250.092V307.16H0V292.84Z" fill="black"/>
<path d="M416.208 213.434C397.592 213.434 382.485 198.327 382.485 179.711C382.485 171.835 385.277 164.174 390.361 158.016C396.805 150.284 406.256 145.916 416.28 145.916C434.824 145.916 449.931 161.096 449.931 179.71C449.931 189.305 445.85 198.469 438.762 204.841C432.533 210.354 424.514 213.434 416.208 213.434ZM416.28 160.236C410.48 160.236 405.039 162.742 401.387 167.181C398.452 170.761 396.805 175.057 396.805 179.711C396.805 190.379 405.54 199.114 416.208 199.114C421.005 199.114 425.588 197.324 429.167 194.102C433.32 190.379 435.611 185.295 435.611 179.711C435.611 168.971 426.949 160.236 416.28 160.236Z" fill="black"/>
<path d="M397.303 584.395C382.768 584.395 369.881 575.087 365.298 561.269C364.153 557.76 363.58 554.109 363.58 550.6C363.58 531.984 378.687 516.877 397.304 516.877C410.621 516.877 422.721 524.753 428.092 536.924C430.025 541.22 431.027 545.874 431.027 550.671C431.027 569.287 415.919 584.395 397.303 584.395ZM397.303 531.197C386.635 531.197 377.9 539.932 377.9 550.6C377.9 552.676 378.258 554.752 378.902 556.829C381.551 564.705 388.926 570.074 397.304 570.074C407.972 570.074 416.707 561.339 416.707 550.671C416.707 547.879 416.134 545.158 415.06 542.724C411.91 535.707 404.963 531.197 397.303 531.197Z" fill="black"/>
<path d="M77.1144 183.727C70.9569 183.727 64.8709 182.009 59.5732 178.787C49.6208 172.701 43.3922 161.675 43.3922 150.005C43.3922 131.389 58.4996 116.281 77.1157 116.281C84.4188 116.281 91.4362 118.572 97.3069 122.94C105.899 129.384 110.839 139.265 110.839 150.005C110.839 168.621 95.7319 183.728 77.1157 183.728L77.1144 183.727ZM77.1144 130.601C66.4462 130.601 57.7114 139.336 57.7114 150.004C57.7114 156.877 61.2198 163.035 67.0194 166.616C70.0982 168.477 73.5349 169.408 77.1148 169.408C87.783 169.408 96.5178 160.673 96.5178 150.005C96.5178 143.776 93.6538 138.12 88.7135 134.396C85.3484 131.89 81.3388 130.601 77.1144 130.601Z" fill="black"/>
</svg>
