<svg width="649" height="649" viewBox="0 0 649 649" fill="none" xmlns="http://www.w3.org/2000/svg">
<path d="M426.973 324.333C426.973 327.396 426.828 330.458 426.609 333.521C426.463 335.052 426.317 336.51 426.171 338.042C426.025 339.427 425.296 341.906 426.39 336.656C426.244 337.458 426.171 338.333 426.025 339.135C425.078 345.115 423.619 351.094 421.723 356.854C420.848 359.625 419.536 362.323 418.734 365.094C418.807 364.948 420.63 360.792 419.463 363.417C419.171 364 418.952 364.583 418.661 365.167C418.005 366.625 417.275 368.083 416.546 369.542C413.848 374.792 410.786 379.896 407.359 384.708C406.557 385.875 405.609 386.969 404.807 388.208C408.088 383.396 405.317 387.479 404.369 388.646C402.4 390.979 400.432 393.239 398.317 395.354C396.348 397.396 394.234 399.364 392.119 401.333C391.171 402.208 390.223 403.01 389.202 403.812C388.692 404.25 388.255 404.614 387.744 405.052C385.338 406.948 386.942 405.562 388.4 404.542C383.442 407.823 378.775 411.323 373.598 414.239C371.046 415.625 368.494 416.937 365.868 418.177C364.556 418.76 359.671 420.291 365.358 418.469C363.827 418.979 362.368 419.635 360.837 420.219C355.296 422.187 349.608 423.791 343.848 424.958C342.244 425.323 340.567 425.614 338.962 425.833C338.306 425.906 337.65 426.052 336.994 426.125C342.244 425.25 340.056 425.76 338.89 425.833C335.535 426.198 332.181 426.489 328.827 426.562C322.702 426.781 316.65 426.489 310.524 425.833C307.535 425.541 312.201 426.052 312.42 426.125C311.618 425.979 310.743 425.906 309.941 425.76C308.483 425.541 307.024 425.25 305.566 424.958C302.649 424.375 299.806 423.646 296.962 422.844C294.118 422.042 291.347 421.167 288.576 420.146C287.191 419.635 285.879 419.052 284.493 418.615C282.233 417.812 288.941 420.583 285.733 419.125C284.858 418.76 283.983 418.323 283.108 417.958C277.858 415.552 272.826 412.708 268.014 409.573C265.608 407.969 263.348 406.219 261.014 404.614C261.16 404.687 264.66 407.531 262.473 405.708C261.962 405.271 261.452 404.906 261.014 404.469C259.775 403.448 258.608 402.427 257.368 401.333C252.848 397.323 248.691 392.948 244.827 388.281C243.879 387.114 241.473 383.541 244.681 388.208C243.879 387.041 242.931 385.875 242.129 384.708C240.379 382.229 238.702 379.677 237.17 377.125C235.712 374.646 234.327 372.094 233.014 369.541C232.431 368.375 231.848 367.208 231.337 366.041C230.973 365.312 230.681 364.583 230.316 363.854C228.639 360.208 231.337 366.406 230.681 364.656C228.566 358.969 226.598 353.354 225.212 347.448C224.556 344.75 224.045 341.979 223.535 339.208C223.389 338.406 223.316 337.531 223.17 336.729C223.243 336.875 223.754 341.615 223.462 338.625C223.316 336.948 223.098 335.271 222.952 333.594C222.514 327.323 222.514 320.979 223.025 314.709C223.17 313.177 223.316 311.719 223.462 310.188C223.608 308.948 224.118 306.761 223.17 312.084C223.316 311.427 223.389 310.771 223.462 310.115C223.973 306.834 224.629 303.625 225.431 300.417C226.816 294.657 229.077 289.334 230.9 283.72C229.15 289.261 230.535 284.668 231.191 283.209C231.775 281.897 232.431 280.584 233.087 279.272C234.473 276.574 235.931 273.876 237.535 271.324C238.921 268.991 240.452 266.73 241.983 264.543C242.931 263.23 243.952 261.991 244.827 260.678C244.754 260.824 241.91 264.324 243.733 262.137C244.316 261.407 244.9 260.678 245.556 259.949C249.202 255.574 253.212 251.418 257.514 247.626C258.608 246.678 259.629 245.73 260.795 244.855C261.962 243.907 266.046 241.137 261.233 244.418C263.712 242.668 266.118 240.845 268.67 239.168C273.629 235.96 278.879 233.043 284.274 230.637C284.858 230.345 285.441 230.126 286.024 229.835C288.65 228.668 284.493 230.491 284.347 230.564C285.733 230.126 287.045 229.47 288.431 228.96C291.347 227.866 294.264 226.918 297.254 226.116C300.097 225.314 302.941 224.657 305.858 224.001C307.17 223.71 308.483 223.491 309.795 223.272C310.597 223.126 311.472 222.98 312.274 222.908C314.243 222.616 307.316 223.491 311.399 223.053C317.67 222.324 323.941 222.105 330.211 222.397C333.055 222.543 335.972 222.762 338.816 223.053C340.201 223.199 342.68 223.928 337.43 222.835C338.086 222.98 338.743 223.053 339.399 223.126C341.003 223.418 342.68 223.71 344.284 224.001C350.191 225.168 356.024 226.845 361.711 228.96C363.097 229.47 364.409 230.126 365.794 230.564C360.471 228.814 364.409 229.981 365.867 230.637C368.784 231.949 371.628 233.408 374.471 235.012C379.503 237.855 384.097 241.21 388.909 244.418C383.95 240.991 388.253 243.98 389.346 244.855C390.44 245.803 391.534 246.678 392.627 247.626C394.888 249.668 397.075 251.71 399.117 253.897C401.013 255.866 402.763 257.835 404.513 259.949C405.388 261.043 408.669 265.783 405.242 260.751C406.117 262.064 407.138 263.303 408.086 264.616C411.367 269.355 414.357 274.241 416.982 279.418C417.638 280.731 418.294 282.044 418.878 283.356C419.534 284.814 420.919 289.408 419.169 283.866C420.117 286.783 421.357 289.627 422.305 292.543C424.201 298.304 425.586 304.283 426.534 310.262C426.607 310.918 426.753 311.575 426.826 312.231C425.951 306.981 426.461 309.168 426.534 310.335C426.68 312.012 426.898 313.689 427.044 315.366C426.826 318.21 426.898 321.273 426.971 324.335C427.044 333.887 435.357 343.002 445.201 342.564C455.044 342.127 463.503 334.544 463.43 324.335C463.284 296.335 454.899 268.043 438.566 245.22C421.649 221.523 398.754 203.876 371.483 193.742C318.254 173.982 254.598 191.19 218.577 235.086C199.837 257.982 188.681 285.107 186.347 314.638C184.087 342.711 191.233 371.804 205.817 395.867C219.962 419.274 241.327 438.96 266.41 450.118C293.973 462.441 323.941 466.014 353.618 459.961C408.087 448.951 453.149 402.357 461.462 347.305C462.629 339.649 463.431 331.993 463.504 324.264C463.577 314.712 455.118 305.597 445.274 306.035C435.285 306.545 426.972 314.129 426.972 324.337L426.973 324.333Z" fill="black"/>
<path d="M563.973 324.333C563.973 331.115 563.682 337.969 563.171 344.749C562.88 348.103 562.588 351.458 562.15 354.812C562.077 355.468 562.005 356.124 561.932 356.781C561.494 360.427 562.515 352.916 562.15 355.395C561.859 357.218 561.64 359.041 561.348 360.864C559.234 373.843 556.171 386.676 552.088 399.219C550.046 405.417 547.786 411.469 545.38 417.521C544.286 420.219 546.036 415.99 546.109 415.844C545.671 416.719 545.38 417.594 544.942 418.542L543.192 422.48C541.807 425.542 540.276 428.605 538.744 431.594C532.984 442.896 526.421 453.761 519.13 464.042C517.38 466.521 515.484 468.928 513.734 471.334C517.307 466.303 513.88 471.115 513.078 472.136C511.984 473.521 510.89 474.834 509.723 476.219C505.64 481.105 501.411 485.844 496.963 490.438C492.661 494.886 488.14 499.188 483.547 503.344C481.141 505.459 478.734 507.573 476.328 509.615C475.089 510.636 473.849 511.657 472.609 512.605C472.099 512.969 471.589 513.407 471.078 513.771C468.672 515.667 470.203 514.355 471.734 513.261C461.162 520.625 450.953 527.99 439.652 534.188C434.037 537.323 428.277 540.167 422.444 542.865C420.985 543.521 419.527 544.177 417.996 544.833C417.413 545.125 416.829 545.344 416.246 545.563C421.131 543.375 418.652 544.542 417.486 545.052C414.35 546.292 411.142 547.604 407.933 548.698C395.61 553.146 382.923 556.719 370.089 559.271C367.173 559.854 364.183 560.365 361.266 560.875C359.589 561.167 357.985 561.386 356.308 561.604C352.662 562.115 360.173 561.094 357.694 561.386C356.527 561.531 355.36 561.677 354.194 561.823C347.631 562.552 341.068 563.063 334.505 563.281C321.089 563.792 307.599 563.281 294.328 561.677C293.307 561.531 292.359 561.386 291.339 561.313C291.484 561.313 296.224 561.969 293.234 561.531C291.557 561.313 289.953 561.021 288.276 560.802C284.995 560.292 281.714 559.709 278.505 559.052C272.089 557.74 265.672 556.209 259.328 554.386C253.057 552.636 246.859 550.594 240.735 548.334C237.672 547.24 234.682 546 231.693 544.834C230.599 544.396 228.63 543.448 233.37 545.563C232.641 545.198 231.912 544.906 231.11 544.615C229.506 543.886 227.828 543.156 226.224 542.427C214.557 537.031 203.328 530.761 192.609 523.761C190.203 522.157 187.797 520.552 185.464 518.875C184.151 517.927 182.839 517.052 181.599 516.104C180.432 515.229 175.037 510.927 179.922 514.938C174.964 510.927 170.005 506.917 165.266 502.688C155.933 494.229 147.183 485.188 139.162 475.49C138.214 474.397 137.339 473.303 136.464 472.136C135.589 471.042 132.235 466.376 135.808 471.334C133.985 468.709 132.016 466.23 130.12 463.605C126.402 458.355 122.902 453.032 119.62 447.564C116.339 442.095 113.204 436.407 110.36 430.72C108.902 427.876 107.516 424.959 106.204 422.043C105.62 420.73 105.037 419.417 104.454 418.032C104.162 417.303 103.798 416.574 103.506 415.772C105.839 421.022 104.308 417.668 103.87 416.574C98.9121 404.47 94.9746 392 91.912 379.314C90.3808 372.897 89.0683 366.408 88.0475 359.844C87.7559 358.167 87.61 356.563 87.3184 354.886C87.3184 355.032 87.9017 359.772 87.61 356.782C87.5371 355.98 87.3913 355.105 87.3184 354.303C86.8808 350.803 86.5892 347.303 86.2975 343.73C85.2767 330.167 85.3496 316.459 86.4434 302.896C86.6621 299.907 87.0267 296.844 87.3184 293.855C87.3913 293.053 87.5371 292.178 87.61 291.376C87.9017 288.896 86.8808 296.334 87.3913 292.761C87.6829 290.938 87.9017 289.115 88.1934 287.292C89.2871 280.73 90.5996 274.24 92.1308 267.823C95.1933 255.281 99.2767 243.104 104.089 231.146C105.475 227.719 102.266 235.302 103.725 231.948C104.016 231.364 104.235 230.781 104.527 230.198C105.183 228.739 105.839 227.281 106.496 225.75C107.808 222.833 109.266 219.917 110.725 217.073C113.641 211.385 116.777 205.771 120.058 200.229C123.339 194.76 126.912 189.437 130.631 184.187C131.579 182.875 132.527 181.562 133.475 180.323C133.985 179.594 136.975 175.729 134.933 178.354C132.892 180.979 135.881 177.115 136.464 176.458C137.631 175 138.871 173.469 140.11 172.01C148.277 162.24 157.173 153.052 166.725 144.594C168.839 142.699 171.027 140.803 173.214 138.98C174.454 137.959 175.694 136.938 176.933 135.99C177.589 135.48 178.173 134.969 178.829 134.532C182.183 131.907 175.767 136.792 178.537 134.751C183.569 131.032 188.6 127.386 193.849 124.032C204.495 117.105 215.652 110.98 227.172 105.729C228.631 105.073 230.089 104.417 231.62 103.76C236.214 101.792 227.974 105.219 232.641 103.323C235.63 102.083 238.693 100.917 241.682 99.8229C247.807 97.5625 254.005 95.5937 260.276 93.8437C266.619 92.0937 273.036 90.5625 279.453 89.2499C282.734 88.5937 286.016 88.0103 289.224 87.4999C290.682 87.2812 292.213 87.0624 293.672 86.8437C296.151 86.4791 288.713 87.4999 292.286 87.0624C293.307 86.9166 294.255 86.8437 295.276 86.6978C308.765 85.1666 322.401 84.6562 336.036 85.2394C342.817 85.5311 349.525 86.1144 356.233 86.9165C356.889 86.9894 357.546 87.0623 358.202 87.1353C352.733 86.479 355.504 86.7707 356.817 86.9894C358.275 87.2082 359.806 87.4269 361.264 87.6457C364.837 88.229 368.483 88.8853 372.056 89.6145C384.744 92.2395 397.212 95.8123 409.316 100.26C412.233 101.354 415.077 102.448 417.92 103.614C421.202 104.927 414.493 102.083 416.681 103.104C417.41 103.469 418.139 103.76 418.868 104.052C420.472 104.781 422.076 105.51 423.754 106.239C429.441 108.865 435.056 111.708 440.524 114.771C446.139 117.906 451.608 121.187 456.931 124.76C459.629 126.51 462.254 128.333 464.806 130.156C465.973 130.958 467.139 131.833 468.306 132.708C469.473 133.583 474.358 137.448 469.546 133.583C479.462 141.604 489.087 149.917 497.909 159.177C502.284 163.77 506.514 168.51 510.597 173.469C511.618 174.708 512.639 175.948 513.587 177.187C513.951 177.698 514.389 178.208 514.753 178.719C516.941 181.416 512.566 175.729 513.951 177.698C515.92 180.396 517.962 183.094 519.857 185.791C527.222 196.291 533.784 207.302 539.545 218.822C540.858 221.447 542.098 223.999 543.264 226.697C543.92 228.156 544.577 229.614 545.233 231.145C545.525 231.728 545.743 232.312 545.962 232.895C543.556 227.572 545.306 231.364 545.816 232.603C548.223 238.655 550.483 244.707 552.452 250.906C556.389 263.302 559.379 275.989 561.421 288.823C561.712 290.5 561.931 292.105 562.15 293.782C561.202 287.292 562.077 293.563 562.223 294.948C562.587 297.938 562.879 301 563.098 303.99C563.681 310.698 563.973 317.552 563.973 324.333C563.973 333.885 572.358 343.001 582.202 342.563C592.046 342.126 600.431 334.542 600.431 324.334C600.286 268.042 583.005 211.75 550.265 165.814C517.379 119.658 471.661 84.5846 418.431 64.97C364.765 45.21 304.39 43.386 249.405 58.9178C196.467 73.9392 147.905 105.22 112.898 147.658C76.2207 192.136 54.1273 246.314 49.606 303.844C45.1581 360.355 59.0852 418.251 88.398 466.738C116.835 513.623 159.491 552.269 209.439 574.874C263.179 599.155 322.825 606.01 380.653 594.415C434.83 583.478 485.507 555.186 523.639 515.301C561.921 475.27 588.317 423.498 596.775 368.66C599.036 354.004 600.421 339.275 600.421 324.401C600.421 314.848 592.036 305.734 582.192 306.171C572.275 306.536 563.963 314.119 563.963 324.327L563.973 324.333Z" fill="black"/>
<path d="M342.893 629.853V551.104V425.688V397.032C342.893 387.48 334.508 378.365 324.664 378.803C314.82 379.24 306.435 386.823 306.435 397.032V475.781V601.197V629.853C306.435 639.406 314.82 648.52 324.664 648.083C334.508 647.645 342.893 640.062 342.893 629.853Z" fill="black"/>
<path d="M342.893 251.64V172.891V47.4747V18.8187C342.893 9.26654 334.508 0.152014 324.664 0.589347C314.82 1.02668 306.435 8.61014 306.435 18.8187V97.568V222.984V251.64C306.435 261.192 314.82 270.307 324.664 269.869C334.508 269.432 342.893 261.849 342.893 251.64Z" fill="black"/>
<path d="M630.187 306.107H551.437H426.021H397.365C387.813 306.107 378.699 314.492 379.136 324.336C379.573 334.18 387.157 342.565 397.365 342.565H476.115H601.531H630.187C639.739 342.565 648.853 334.18 648.416 324.336C647.979 314.492 640.395 306.107 630.187 306.107Z" fill="black"/>
<path d="M251.973 306.107H173.224H47.808H19.152C9.59986 306.107 0.485327 314.492 0.92266 324.336C1.35999 334.18 8.94346 342.565 19.152 342.565H97.9013H223.317H251.973C261.525 342.565 270.64 334.18 270.203 324.336C269.765 314.492 262.182 306.107 251.973 306.107Z" fill="black"/>
</svg>
