<svg width="500" height="396" viewBox="0 0 500 396" fill="none" xmlns="http://www.w3.org/2000/svg">
<path d="M250.001 0C112.116 0 0 112.114 0 250.001C0 304.084 17.3466 354.323 46.6325 395.259L71.0467 375.973C46.0215 340.398 31.2488 296.878 31.2488 249.994C31.2488 128.998 129.003 31.2432 250 31.2432C370.997 31.2432 468.751 128.998 468.751 249.994C468.751 296.882 453.977 340.404 428.959 375.973L453.373 395.259C482.653 354.316 500 304.071 500 250.001C500 112.116 387.886 0 249.999 0H250.001ZM388.187 166.505L222.422 277.104C207.162 292.358 207.162 317.022 222.422 332.281C237.676 347.535 262.345 347.535 277.599 332.281L388.193 166.516L388.187 166.505Z" fill="black"/>
</svg>
